<svg id="ec3aa434-8455-4661-a706-e41b05527956" data-name="Layer 1" xmlns="http://www.w3.org/2000/svg" viewBox="0 0 792 792"><defs><style>.e81b975c-6e40-4e65-808e-1253ef4644a2{fill:#231f20;}</style></defs><path class="e81b975c-6e40-4e65-808e-1253ef4644a2" d="M396,77.57,671.77,236.78V555.22L396,714.43,120.23,555.22V236.78L396,77.57M396,36,84.23,216V576L396,756,707.77,576V216L396,36Z"/><path class="e81b975c-6e40-4e65-808e-1253ef4644a2" d="M617.49,247.17l-36-20.78h0L449.73,150.32h0l-36-20.78h0V171.1h0V364.82h0L617.49,247.18h0Zm-72,0-95.77,55.29V191.89Z"/><polygon class="e81b975c-6e40-4e65-808e-1253ef4644a2" points="173.95 247.18 377.72 364.82 377.72 323.25 245.95 247.18 377.72 171.1 377.72 129.53 173.95 247.18"/><polygon class="e81b975c-6e40-4e65-808e-1253ef4644a2" points="395.72 416.78 155.95 278.36 155.96 513.64 191.96 492.86 191.95 340.71 395.72 458.35 599.49 340.71 599.49 492.86 635.49 513.64 635.49 278.35 395.72 416.78"/></svg>