<?xml version="1.0" encoding="UTF-8"?><svg id="uuid-0d7086c7-875f-4dfa-a9ba-a830af9e5299" xmlns="http://www.w3.org/2000/svg" viewBox="0 0 76.78 67.39"><defs><style>.uuid-cd54ba22-b296-4574-bbd5-bdf20f89a4d7{fill:#010101;}</style></defs><g id="uuid-d52e94a7-a682-44fa-a4a7-76a3d5128b01"><g><path class="uuid-cd54ba22-b296-4574-bbd5-bdf20f89a4d7" d="M13.92,65.5c-1.52-.42-2.45-1.24-2.78-2.46-.28-.77-1.07-12.12-2.36-34.03-.23-4.01-.45-7.37-.65-10.09-.2-2.72-.32-4.16-.37-4.32h-.04c-.09,0-.3,.09-.63,.28-.4,.23-.88,.54-1.44,.91-.8,.59-1.41,1.02-1.85,1.3-.43,.28-.78,.46-1.04,.54-.26,.08-.53,.12-.81,.12-.47,0-.91-.22-1.34-.65-.42-.43-.63-.88-.63-1.35,0-.59,.31-1.18,.93-1.79,.62-.61,1.78-1.49,3.46-2.64l3.02-2.04,.18-2.29c.09-1.24,.27-2.09,.53-2.53,.26-.44,.75-.75,1.48-.91,.82-.21,1.53-.32,2.14-.32,.8,0,1.41,.19,1.83,.56,.19,.16,.35,.34,.47,.53,.13,.19,.19,.34,.19,.46,0,.3,.16,.46,.49,.46,.28,0,.69-.12,1.23-.35,.91-.44,2.21-.95,3.9-1.51s3.18-.98,4.46-1.27c1.52-.3,3.12-.46,4.78-.46h.35c1.78,.02,3.2,.21,4.25,.56,2.62,.91,4.46,2.61,5.52,5.1,.19,.35,.31,.82,.37,1.41,.06,.59,.09,1.49,.09,2.71v.63c0,1.01-.05,1.79-.14,2.36-.09,.68-.33,1.51-.7,2.5-2.58,7.52-8.27,15.33-17.09,23.41l-1.9,1.76,.7,.25c.54,.19,1.78,.58,3.73,1.16,1.95,.59,3.93,1.17,5.96,1.74,2.03,.58,3.44,.96,4.24,1.14,1.22,.28,2.07,.62,2.57,1s.74,.93,.74,1.63c0,1.1-.61,1.84-1.83,2.21h-.07c-.28,0-1.15-.13-2.6-.39-1.55-.28-3.46-.67-5.73-1.16-.91-.19-1.76-.36-2.53-.53-.89-.21-1.68-.39-2.37-.53-.69-.14-1.31-.27-1.85-.39-.54-.12-1-.22-1.39-.3-.39-.08-.72-.15-1-.21-.28-.06-.51-.11-.69-.14s-.32-.06-.42-.07c-.11-.01-.18-.02-.23-.02s-.08,0-.11,.02c-.02,.01-.04,.03-.04,.05-.02,.05-.04,.25-.04,.6s.01,.86,.04,1.51c.05,1.31,.13,2.93,.25,4.85,.14,2.3,.24,4.04,.3,5.22,.06,1.18,.09,2.09,.09,2.72v.56c0,.66-.05,1.11-.14,1.37-.09,.26-.23,.47-.42,.63-.45,.47-1.02,.7-1.72,.7-.42,0-.88-.08-1.37-.25Zm6.71-30.59c1.22-1.22,2.22-2.29,3.01-3.2,.79-.91,1.52-1.89,2.2-2.92,2.53-3.89,4.25-7.18,5.15-9.88,.9-2.69,1.35-4.86,1.35-6.5,0-.84-.09-1.62-.28-2.32-.4-1.34-1.13-2.31-2.2-2.92-1.07-.61-2.13-.91-3.18-.91-.4,0-.8,.04-1.2,.11-1.08,.21-2.43,.59-4.04,1.14-1.62,.55-3.08,1.11-4.39,1.67-1.31,.56-2.05,.97-2.21,1.23v.18c0,.4,.05,1.5,.14,3.3,.09,2.13,.22,4.71,.37,7.72,.15,3.01,.31,5.91,.47,8.68,.16,2.78,.29,4.87,.39,6.28,.05,.66,.09,1.13,.14,1.42,.05,.29,.09,.46,.14,.49,.05,.04,.09,.05,.14,.05s.12-.02,.21-.07c.14-.09,.57-.47,1.3-1.14,.73-.67,1.56-1.47,2.5-2.41Z"/><path class="uuid-cd54ba22-b296-4574-bbd5-bdf20f89a4d7" d="M70.95,67.25c-.14-.07-.29-.18-.46-.32-.16-.14-.28-.28-.35-.42-.09-.16-.19-.71-.28-1.63-.09-.93-.18-2-.25-3.22-.09-1.27-.18-2.48-.26-3.66-.08-1.17-.14-2.04-.16-2.6l-.18-1.86-1.12,1.55c-.98,1.27-2.11,2.45-3.38,3.55-1.27,1.1-2.47,1.95-3.62,2.53-.87,.47-1.58,.77-2.13,.9-.55,.13-1.39,.21-2.51,.23-.42,.02-.8,.04-1.12,.04-.49,0-.9-.02-1.23-.07-.56-.07-1.12-.21-1.69-.42-2.72-1.05-5.01-3.09-6.87-6.12s-3.15-6.81-3.85-11.36c-.26-1.95-.39-4.36-.39-7.24s.14-5.43,.42-7.56c.96-6.35,2.65-11.89,5.08-16.61,2.43-4.72,5.03-8.06,7.82-10.02,2.79-1.96,5.4-2.94,7.84-2.94,.98,0,1.97,.13,2.95,.39,3.45,1.01,6.22,3.69,8.33,8.05,.66,1.34,.98,2.4,.98,3.2,0,.68-.22,1.17-.67,1.48-.47,.38-.93,.56-1.37,.56-.84,0-1.62-.75-2.32-2.25-.8-1.78-1.83-3.32-3.09-4.61-.56-.54-1.28-1.04-2.16-1.49s-1.55-.69-2.02-.69c-1.01,0-2.37,.81-4.08,2.43-2.63,2.51-4.82,6.06-6.57,10.65-1.76,4.59-2.88,9.69-3.38,15.29-.09,1.29-.14,2.54-.14,3.76,0,3.99,.47,7.63,1.41,10.93,1.24,4.36,3.06,7.35,5.45,8.96,.68,.45,1.17,.67,1.48,.69,.3,.01,.48,.02,.53,.02,.49,0,1.03-.15,1.62-.46,3.05-1.69,5.78-4.8,8.19-9.35,.37-.63,.64-1.15,.81-1.56,.16-.41,.26-.79,.28-1.14,.02-.35,.04-.64,.04-.88,0-.44-.04-1-.11-1.65l-.18-2.85-2.25,.18c-.63,.07-1.25,.15-1.86,.23-.61,.08-1.05,.16-1.34,.23-.35,.07-.67,.11-.95,.11-.94,0-1.64-.33-2.11-.98-.26-.35-.39-.71-.39-1.09,0-.52,.26-1.07,.77-1.65,.33-.33,1.04-.59,2.13-.79,1.09-.2,2.87-.37,5.33-.51,1.48-.07,2.57-.16,3.29-.26,.71-.11,1.17-.23,1.35-.37,.42-.28,.88-.42,1.37-.42,.28,0,.58,.06,.91,.18,.84,.28,1.5,.83,1.97,1.65,.07,.14,.13,.44,.18,.9,.05,.46,.08,1.07,.11,1.85,.02,.77,.04,1.55,.04,2.32s-.01,1.62-.04,2.6c0,1.95-.02,4.49-.07,7.63-.02,4.34-.08,7.87-.16,10.6-.08,2.73-.16,4.19-.23,4.38-.16,.28-.6,.52-1.3,.72s-1.32,.32-1.85,.37-.9,.07-1.11,.07c-.45,0-.81-.05-1.09-.14Z"/></g></g></svg>