<?xml version="1.0" encoding="UTF-8"?><svg id="uuid-0a6fd3fa-a57c-4d05-a08b-3894b75ffb83" xmlns="http://www.w3.org/2000/svg" viewBox="0 0 603.61 390"><defs><style>.uuid-10700217-58b9-444e-898c-eb5f19928068{fill:#231f20;stroke:#231f20;stroke-miterlimit:10;stroke-width:2px;}</style></defs><g id="uuid-2b525d69-479d-4941-bf26-bde529fdbdc1"><path class="uuid-10700217-58b9-444e-898c-eb5f19928068" d="M254.22,127.76v201.11c0,.86-.36,1.69-.99,2.28l-8.89,8.26c-.57,.53-1.33,.83-2.11,.83h-26.12c-.78,0-1.54-.3-2.11-.83l-8.89-8.26c-.63-.59-.99-1.41-.99-2.28V100.61c0-1.19-.68-2.28-1.76-2.8L1.72,1.3l-.43,.72L139,119.03c.69,.59,1.1,1.46,1.1,2.37v223.09c0,.86,.36,1.69,.99,2.28l44.61,41.4c.57,.53,1.33,.83,2.11,.83h82.61c.78,0,1.54-.3,2.11-.83l44.7-41.4c.64-.59,1-1.41,1-2.28V207.75c0-2.11,2.06-3.61,4.07-2.96l177.81,56.87,102.5,34.02c.46,.15-72.33-36.58-72.76-36.79L258.7,124.98c-2.07-1.02-4.48,.48-4.48,2.79Z"/></g></svg>